<svg xmlns="http://www.w3.org/2000/svg" xml:space="preserve" viewBox="0 0 900 325.806">
  <path d="M255.557 92.656 153.896 1.413A5.85 5.85 0 0 0 150.067 0c-1.431 0-2.791.514-3.793 1.413L44.577 92.656c-59.436 53.295-59.436 140.044 0 193.372 27.983 25.107 65.413 39.233 105.562 39.778 39.97-.545 77.435-14.671 105.418-39.778 28.661-25.715 44.443-60.07 44.443-96.67s-15.744-70.985-44.443-96.702ZM38.852 113.268l105.848 93.62v71.08l-130.646-115.9c4.222-17.305 12.488-34 24.798-48.8ZM144.7 99.463 98.467 57.951 144.7 16.438Zm10.734-83.025 46.412 41.64-46.412 41.642zm0 191.06c.108-.193.215-.418.287-.61l105.704-93.46c12.096 14.544 20.431 31.175 24.656 48.93L155.434 278.225Zm99.192-101.582-99.192 87.712v-80.425c.144-.096.323-.16.465-.29l53.532-48.029 38.54 34.578a118.554 118.554 0 0 1 6.655 6.453zM90.881 64.756l53.675 48.159c.034.03.107.064.179.096v80.36L45.65 105.755c2.076-2.15 4.223-4.27 6.513-6.292zm-79.01 108.902 132.864 117.826v23.47c0 .353.034.706.143 1.027-35.175-1.637-67.917-14.574-92.679-36.792-32.062-28.734-45.48-67.967-40.328-105.53Zm236.1 105.562c-24.798 22.25-57.576 35.187-92.644 36.795.072-.355.143-.676.143-1.06v-23.182l132.792-117.795a115.07 115.07 0 0 1 1.038 15.347c0 34.064-14.671 65.977-41.33 89.894zM478.886 84.436h17.344l30.007 103.943q3.36 12.002 6.001 22.925 2.64 10.982 4.321 19.264 1.74-8.642 4.021-18.184 2.28-9.542 5.581-21.185l21.065-74.056q.36-1.44.84-3.18.48-1.741.84-3.542.3-1.74.6-3.24.3-1.56.3-2.581 0-6.241-3.9-9.002-3.961-2.7-11.883-2.7h-5.521V82.815h58.573v10.082h-4.561q-3.48 0-6.121.66-2.641.72-4.742 2.701-2.16 1.98-3.9 5.641-1.74 3.601-3.541 9.603L543.7 254.153h-21.604l-39.129-134.43-36.667 134.43h-22.145L380.165 105.5q-1.14-3.72-2.64-6.181-1.44-2.46-3.42-3.901-2.041-1.38-4.742-1.98-2.7-.54-6.181-.54H360V82.815h66.135v10.082h-5.522q-7.261 0-10.862 2.701-3.54 2.76-3.54 8.762 0 1.98.54 4.08.6 2.101 1.32 4.802l22.025 76.817q3.06 10.862 5.76 21.365 2.701 10.502 4.682 19.144 1.74-9.362 4.14-20.404 2.401-11.103 5.582-22.686zm153.635 134.91q0 11.222 4.74 16.803 4.742 5.582 14.704 5.582 7.261 0 13.203-2.341 5.941-2.34 10.082-6.661 4.141-4.381 6.421-10.563 2.221-6.241 2.221-13.863v-19.444l-15.363.72q-10.203.48-17.044 2.52-6.902 2.04-11.103 5.762-4.2 3.66-6.061 9.062-1.8 5.401-1.8 12.423zm29.106-84.26q-6.962 0-11.222 1.921-4.261 1.92-6.662 5.461-2.4 3.481-3.24 8.282-.84 4.801-.84 10.443-9.963 0-15.184-3.361-5.221-3.42-5.221-11.763 0-6.181 3.42-10.562 3.421-4.321 9.302-7.082 5.942-2.76 13.804-4.02 7.861-1.32 16.743-1.32 11.043 0 19.204 2.22 8.222 2.16 13.744 7.081 5.52 4.921 8.281 12.843 2.761 7.862 2.761 19.384v62.234q0 5.041.78 8.342.84 3.24 2.58 5.221 1.801 2.04 4.622 2.82 2.88.841 6.901.841h.66v10.082h-32.467l-3.72-20.644h-1.981q-3.78 5.04-7.262 9.302-3.54 4.2-7.741 7.261-4.261 3.001-9.603 4.741-5.28 1.68-12.782 1.68-7.982 0-14.824-2.28-6.901-2.28-11.882-7.021t-7.802-11.943q-2.76-7.262-2.76-17.104 0-19.084 13.562-28.326 13.623-9.302 41.17-10.082l19.924-.72v-14.404q0-6.481-.72-11.882-.72-5.461-3.06-9.422-2.341-3.901-6.722-6.062-4.381-2.16-11.763-2.16zm142.292 108.985h9.122v10.082h-74.177v-10.082h3.12q4.142 0 7.683-.6 3.6-.54 6.241-2.4 2.64-1.801 4.2-5.222 1.621-3.36 1.621-9.002v-90.02h-21.965v-11.402h21.965v-11.943q0-10.742 2.88-18.964 2.942-8.222 8.463-13.863 5.521-5.582 13.383-8.462 7.801-2.88 17.704-2.88 9.362 0 15.783 1.2 6.482 1.26 10.383 3.48 3.96 2.22 5.7 5.281 1.741 3.061 1.741 6.782 0 3.3-1.44 5.821-1.5 2.52-4.141 4.201-2.64 1.74-6.181 2.58-3.601.9-7.922.9 0-3.66-.78-7.08-.72-3.481-2.581-6.182-1.8-2.7-4.861-4.321-3.06-1.62-7.622-1.62-5.16 0-8.582 1.98-3.48 1.98-5.58 5.881-2.101 3.961-3.002 9.663-.84 5.76-.84 13.383v14.163h33.848v11.402h-33.848v90.02q0 5.641 1.56 9.002 1.561 3.421 4.202 5.221 2.64 1.86 6.3 2.4 3.602.601 7.623.601zm80.718-.24q4.38 0 7.981-.48 3.661-.42 7.382-1.14v10.562q-1.5.66-3.96 1.38-2.461.72-5.342 1.26-2.88.48-6.061.78-3.121.3-5.942.3-9.182 0-15.723-1.92-6.542-1.92-10.803-6.301-4.2-4.321-6.241-11.463-2.04-7.141-2.04-17.463v-80.178h-18.305v-9.602q4.321 0 9.543-1.74 5.22-1.801 9.182-5.882 4.14-4.441 6.661-10.622 2.52-6.122 4.381-15.424h11.043v29.527h31.387v13.743h-31.387v80.898q0 12.302 4.98 18.004 4.982 5.761 13.264 5.761z"/>
</svg>
